<svg width="464" height="352" viewBox="0 0 464 352" fill="none" xmlns="http://www.w3.org/2000/svg">
<path d="M295.667 4.48373C280.067 10.2171 269.533 25.1504 265 47.2837C262.6 59.1504 263.133 60.7504 269.133 61.8171C284.2 64.2171 305 61.6837 317.133 55.8171C331 49.0171 338.467 36.0837 340.733 14.4837C341.533 6.61707 341.4 5.5504 339.267 4.61707C334.467 2.48374 315 -2.62167 295.667 4.48373Z" fill="#5CA21D"/>
<path d="M305.4 76.7504C294.467 77.8171 277.533 81.2838 267.8 84.6171L258.067 87.9504L248.467 83.1504C240.333 78.8838 237.4 78.2171 227 77.5504C220.333 77.2837 213.267 77.2837 211.267 77.8171C207.933 78.7504 208.467 79.1504 218.333 83.1504C231.8 88.6171 242.467 94.8837 251 102.484L257.4 108.217L265.133 105.417C285 98.0838 323.533 98.3504 350.6 106.084C394.867 118.75 428.333 152.084 436.733 191.684C451.8 262.35 386.067 327.817 304.2 323.55L290.2 322.884L282.733 329.55C278.733 333.284 273.133 337.817 270.333 339.684C264.2 343.817 264.6 344.084 281 348.217C296.733 352.217 335.267 352.617 350.467 348.884C404.067 335.95 443.133 300.35 458.333 251.017C464.542 230.901 465.11 203.305 459.8 182.884C453.133 159.15 442.867 140.617 426.467 123.284C399.267 94.4838 364.467 78.7504 323.4 76.8838C316.867 76.4838 308.733 76.4838 305.4 76.7504Z" fill="#C81113"/>
<path d="M124.733 78.6171C92.6 82.3504 58.4667 99.4171 36.8667 122.617C19.5333 141.417 7.8 164.484 2.6 189.95C-0.575043 205.5 0.466662 229.017 2.6 239.284C13.8 294.217 55.9333 336.35 111.4 348.084C125.533 351.15 153.4 351.684 166.733 349.284C217.4 340.084 259.667 304.617 275.533 258.084C285.133 230.217 285.133 199.017 275.533 171.15C260.067 125.684 219.533 90.7504 170.733 80.7504C157.4 78.0838 137.933 77.1504 124.733 78.6171ZM156.067 86.6171C178.333 89.1504 197.8 96.0838 215.533 107.817C243 125.95 262.467 152.484 271 183.55C275.133 198.484 275.133 230.75 271 245.684C244.6 341.95 123.4 375.55 49.2667 307.017C31.9333 290.884 17.4 266.217 11.9333 243.284C7.93333 226.617 7.93333 202.617 11.9333 186.084C25.9333 128.484 77.9333 87.6838 140.067 85.4171C142.6 85.4171 149.8 85.9504 156.067 86.6171Z" fill="#C81113"/>
<path d="M127 96.0837C97.4 99.5504 70.7333 112.884 50.6 134.35C39.6667 146.084 33.9333 154.75 27.4 170.217C20.4667 186.084 18.2 199.817 19.1333 219.817C20.0667 239.817 22.0667 248.217 30.7333 265.95C42.4667 290.217 61.1333 308.617 86.0667 320.617C103.133 328.75 112.067 331.417 129.133 333.15C189.933 339.417 245.8 301.417 261.667 242.884C265.667 228.217 265.533 200.884 261.533 185.95C248.333 136.617 207.133 101.95 154.733 95.9504C142.067 94.4837 140.733 94.4837 127 96.0837ZM149.933 105.55C152.333 107.95 155.4 112.884 156.733 116.617C158.067 120.217 159.4 123.55 159.667 123.817C159.933 124.217 162.6 122.084 165.8 119.017C176.867 108.484 183.667 106.484 189.133 112.35C192.6 116.084 195.133 126.884 194.067 133.417L193.267 138.35L201 135.15C205.267 133.417 211.533 131.95 215 131.95C220.2 131.95 221.667 132.484 224.067 135.55C227.8 140.217 227.133 147.684 222.333 157.417L219 164.217L224.467 163.55C232.067 162.484 242.733 164.75 246.333 168.217C251.933 173.55 249.933 181.017 240.2 190.484L233.8 196.75L239.933 199.017C258.867 205.684 263 217.017 249.667 225.417C246.2 227.55 241.267 230.084 238.6 230.75L233.8 232.217L240.867 239.284C247.8 246.217 250.733 253.017 248.867 257.95C247.267 262.484 239.8 265.284 229.8 265.284C224.467 265.284 220.067 265.55 220.067 265.95C220.067 266.35 221.267 269.15 222.867 272.084C224.333 275.017 225.933 280.35 226.333 283.95C227 289.684 226.733 290.75 223.533 293.95C220.333 297.15 219.133 297.55 213 297.017C209.133 296.617 203.4 295.15 200.2 293.55C196.867 291.95 194.067 290.617 193.8 290.617C193.4 290.617 193.533 293.15 194.067 296.217C195.133 304.35 192.2 314.484 187.8 317.684C182.467 321.684 176.333 319.95 167.4 311.684C163.267 307.95 159.8 305.15 159.533 305.417C159.4 305.684 158.2 308.75 156.867 312.35C153.8 320.617 146.867 327.95 142.2 327.95C137 327.95 129.8 320.617 126.2 311.417L123 303.684L119.933 307.95C115.933 313.284 105.933 319.95 101.8 319.95C93.5333 319.95 89.4 313.15 89.4 299.417V290.884L81.8 294.084C74.2 297.15 66.4667 298.084 62.0667 296.484C61 295.95 59 293.817 57.9333 291.817C55.5333 287.017 56.4667 280.484 61 271.55L64.0667 265.284H53.8C31.6667 265.284 27.4 254.084 43.2667 238.484L49.5333 232.35L41.5333 229.417C33.1333 226.35 25.4 219.284 25.4 214.617C25.4 209.95 33.1333 202.884 41.5333 199.817L49.4 196.884L42.2 189.417C27.6667 173.95 32.4667 163.55 54.2 163.55H63.6667L60.3333 156.084C55.8 146.35 55.6667 137.95 59.9333 134.484C64.3333 130.884 73.6667 131.15 82.4667 135.284L89.4 138.484V129.817C89.4 116.084 93.5333 109.284 101.667 109.284C106.067 109.284 116.333 115.95 120.067 121.284L123 125.55L125.933 118.35C132.867 101.417 141.267 96.8837 149.933 105.55Z" fill="#5CA21D"/>
<path d="M137.133 114.75C132.333 117.55 135 125.284 140.733 125.284C146.333 125.284 148.6 119.417 144.6 115.417C142.2 113.017 140.333 112.75 137.133 114.75Z" fill="#5CA21D"/>
<path d="M98.2 123.417C97 124.484 96.0667 126.084 96.0667 126.75C96.0667 128.217 101 133.284 102.467 133.284C104.467 133.284 109.4 129.15 109.4 127.284C109.4 124.617 105.667 121.284 102.733 121.284C101.4 121.284 99.2667 122.217 98.2 123.417Z" fill="#5CA21D"/>
<path d="M173.4 123.284C172.067 124.884 172.067 126.084 173.267 128.75C174.467 131.55 175.533 132.084 179.133 131.684C182.467 131.417 183.533 130.617 183.8 128.217C184.733 122.217 177.267 118.617 173.4 123.284Z" fill="#5CA21D"/>
<path d="M206.333 144.084C203.8 147.684 205 151.817 208.867 152.75C213.667 153.95 216.067 152.484 216.067 148.217C216.067 141.417 209.933 138.75 206.333 144.084Z" fill="#5CA21D"/>
<path d="M65.4 145.284C63.2667 149.284 65.9333 153.284 70.7333 153.284C73.2667 153.284 75.1333 152.35 76.0667 150.617C78.2 146.617 75.5333 142.617 70.7333 142.617C68.2 142.617 66.3333 143.55 65.4 145.284Z" fill="#5CA21D"/>
<path d="M129.133 172.35C120.6 174.884 109.533 182.35 104.867 189.017C89.2667 211.55 99.1333 242.217 124.867 251.95C140.733 257.817 160.467 254.484 172.6 243.817C182.467 235.15 185.8 228.217 186.467 215.017C187 204.617 186.733 203.284 182.867 195.284C175.667 180.617 162.333 172.217 145 171.15C139.267 170.884 132.867 171.417 129.133 172.35ZM159.8 178.617C168.333 182.35 178.867 193.284 181.133 200.884C188.867 227.017 170.067 250.884 141.933 250.884C101.667 250.884 86.2 201.95 119.8 181.017C131.133 173.95 146.867 173.017 159.8 178.617Z" fill="#C81113"/>
<path d="M45.5333 175.817C42.2 179.15 43.2667 183.684 47.8 184.884C50.3333 185.417 51.8 184.884 53.6667 182.617C55.8 179.95 55.9333 179.284 54.3333 176.75C51.8 172.884 48.7333 172.617 45.5333 175.817Z" fill="#5CA21D"/>
<path d="M227.667 174.217C225.667 176.084 226.733 182.617 229.267 183.95C234.467 186.617 240.2 181.017 237.4 175.95C236.067 173.284 229.667 172.217 227.667 174.217Z" fill="#5CA21D"/>
<path d="M237.667 210.217C232.2 212.35 233.4 221.284 239.133 221.284C243 221.284 245.4 218.884 245.4 215.017C245.4 212.617 241.667 208.884 239.8 209.417C239.533 209.417 238.6 209.817 237.667 210.217Z" fill="#5CA21D"/>
<path d="M37.6667 212.217C35.4 214.484 35.6667 219.284 38.0667 221.284C43.1333 225.417 50.8667 217.684 46.7333 212.617C44.7333 210.217 39.9333 209.95 37.6667 212.217Z" fill="#5CA21D"/>
<path d="M229.133 248.084C224.6 250.617 227 258.617 232.2 258.617C235 258.617 238.733 255.15 238.733 252.617C238.733 250.35 235.133 246.617 233 246.617C232.067 246.617 230.333 247.284 229.133 248.084Z" fill="#5CA21D"/>
<path d="M44.8667 250.084C43.4 253.95 44.0667 257.15 46.7333 258.617C51.8 261.417 57.4 255.684 54.7333 250.484C53 247.284 46.0667 247.017 44.8667 250.084Z" fill="#5CA21D"/>
<path d="M67 280.217C65 282.217 65 287.017 67 289.017C70.6 292.617 77.4 289.95 77.4 285.15C77.4 279.95 70.4667 276.75 67 280.217Z" fill="#5CA21D"/>
<path d="M207 280.217C204.333 282.884 205.133 287.95 208.467 289.15C214.067 291.417 219.667 285.017 216.067 280.617C214.067 278.217 209.133 278.084 207 280.217Z" fill="#5CA21D"/>
<path d="M99 301.55C94.6 305.95 101.133 313.684 106.6 310.617C111.8 307.95 109.4 299.95 103.4 299.95C101.8 299.95 99.9333 300.617 99 301.55Z" fill="#5CA21D"/>
<path d="M174.333 300.75C172.733 302.35 173.267 307.55 175.267 309.284C179.933 313.017 187.667 307.817 184.6 302.884C183.133 300.617 176.067 299.017 174.333 300.75Z" fill="#5CA21D"/>
<path d="M137 309.017C134.067 312.217 134.2 313.684 137.4 316.617C140.467 319.284 145.933 318.484 147.267 315.15C148.333 312.217 144.6 306.617 141.533 306.617C140.2 306.617 138.2 307.684 137 309.017Z" fill="#5CA21D"/>
</svg>

